<svg width="25" height="20" viewBox="0 0 25 20" fill="none" xmlns="http://www.w3.org/2000/svg">
<path d="M21.498 0.483398H3.50315C1.57152 0.483398 0 1.99214 0 3.84779V16.1523C0 18.008 1.57152 19.5167 3.50315 19.5167H21.498C23.4296 19.5167 25 18.008 25 16.1523V3.84779C25 1.98994 23.4296 0.483398 21.498 0.483398ZM24.195 16.7822H0.810535V3.84779C0.810535 2.43706 2.02193 1.28843 3.50755 1.28843H21.498C22.9847 1.28843 24.195 2.43706 24.195 3.84779V16.7822ZM12.5027 4.87968C7.38183 4.87968 3.23223 6.78709 3.23223 9.1339C3.23223 11.4807 7.38293 13.3848 12.5027 13.3848C17.6226 13.3848 21.7733 11.4796 21.7733 9.1328C21.7733 6.78599 17.6248 4.87968 12.5027 4.87968ZM12.5027 11.854C9.22536 11.854 6.56799 10.6426 6.56799 9.1328C6.56799 7.62295 9.22426 6.41265 12.5027 6.41265C15.7812 6.41265 18.4386 7.63066 18.4386 9.1328C18.4386 10.6349 15.7801 11.854 12.5039 11.854H12.5027Z" fill="#0094FF"/>
</svg>
