<svg width="38" height="30" viewBox="0 0 38 30" fill="none" xmlns="http://www.w3.org/2000/svg">
<path d="M35.342 4.8037e-05C34.898 4.81119e-05 34.4721 0.176457 34.1581 0.490448C33.8441 0.804439 33.6677 1.23029 33.6677 1.67434C33.6677 2.11839 33.8441 2.54427 34.1581 2.85826C34.4721 3.17225 34.898 3.34864 35.342 3.34864C35.6595 3.34562 35.9697 3.25305 36.237 3.08158C36.5042 2.9101 36.7176 2.66667 36.8527 2.37931C36.9612 2.16022 37.0173 1.91885 37.0163 1.67434C37.018 1.454 36.9758 1.23555 36.8923 1.03166C36.8087 0.827764 36.6855 0.64251 36.5297 0.486702C36.3739 0.330895 36.1886 0.207646 35.9847 0.124098C35.7808 0.0405507 35.5624 -0.00162761 35.342 4.8037e-05ZM35.342 2.51778C35.1802 2.51778 35.022 2.46979 34.8874 2.37988C34.7528 2.28997 34.648 2.16219 34.5861 2.01267C34.5241 1.86315 34.5079 1.69863 34.5395 1.5399C34.5711 1.38117 34.649 1.23535 34.7634 1.12092C34.8779 1.00648 35.0236 0.928556 35.1824 0.896983C35.3411 0.86541 35.5056 0.881612 35.6551 0.943545C35.8047 1.00548 35.9325 1.11037 36.0224 1.24493C36.1123 1.37949 36.1603 1.53769 36.1603 1.69953C36.1446 1.90664 36.0518 2.10036 35.9004 2.2425C35.7489 2.38464 35.5497 2.46488 35.342 2.46743V2.51778Z" fill="url(#paint0_linear_58_361)"/>
<path d="M12.858 28.4013C12.4174 28.1369 11.9768 27.8725 11.5991 27.5704C11.2214 27.2683 10.7179 26.941 10.3402 26.6137C9.96257 26.2864 9.39609 25.8584 8.93031 25.4681L8.20014 24.889L7.8225 24.5491C7.53296 24.2848 7.23083 24.033 6.95388 23.756L5.43066 22.2958C5.10335 21.9433 4.77606 21.5908 4.46134 21.2257C4.14663 20.8606 3.99554 20.6341 3.76894 20.3319L2.98845 19.1738C2.73668 18.7583 2.52266 18.3303 2.30866 17.9149C2.19945 17.7112 2.10278 17.501 2.01914 17.2855C1.91843 17.0211 1.80513 16.7442 1.70442 16.4672C1.60372 16.1902 1.503 15.7748 1.42747 15.4349C1.35194 15.095 1.28899 14.5789 1.22605 14.1761C1.16311 13.7732 1.15051 13.6347 1.13792 13.3578C1.12533 13.0808 1.13792 12.8039 1.13792 12.5144C1.14639 12.2742 1.16738 12.0347 1.20085 11.7968C1.20085 11.5073 1.31416 11.2177 1.37711 10.9282C1.44005 10.6387 1.45265 10.5757 1.503 10.3995C1.63698 9.96887 1.80101 9.54822 1.99394 9.14061C2.23139 8.61282 2.52247 8.11083 2.86256 7.64255C3.21787 7.13008 3.64139 6.66844 4.12143 6.27039L5.22923 5.42695C5.24512 5.42002 5.26227 5.41643 5.2796 5.41643C5.29693 5.41643 5.31404 5.42002 5.32993 5.42695L5.22923 5.56543C4.86053 6.05095 4.55194 6.57932 4.31025 7.13901C4.18436 7.44114 4.05848 7.76845 3.95777 8.08316C3.86039 8.38888 3.78052 8.6999 3.71858 9.01471C3.71858 9.29166 3.64306 9.56862 3.61789 9.84557C3.59271 10.1225 3.61789 10.412 3.61789 10.7016C3.61789 10.9911 3.6179 11.4695 3.70602 11.8472C3.72936 12.1766 3.7714 12.5044 3.83191 12.8291C3.86467 13.0292 3.91091 13.2269 3.97037 13.4207C4.09625 13.8488 4.20956 14.2768 4.37321 14.6796C4.53687 15.0824 4.81379 15.5986 5.05297 16.0518C5.38462 16.6587 5.786 17.2248 6.24891 17.7387C6.77028 18.3417 7.34775 18.8939 7.97355 19.3878C8.55263 19.841 9.1443 20.2942 9.74856 20.7096C10.2213 21.0067 10.7086 21.2798 11.2088 21.5278C11.6458 21.7589 12.0955 21.9648 12.5558 22.1447C12.9973 22.3128 13.452 22.4433 13.9154 22.5349C14.4315 22.6482 14.9729 22.686 15.489 22.7615C16.0246 22.8183 16.5647 22.8183 17.1003 22.7615C17.5271 22.6991 17.9481 22.6023 18.3592 22.472C18.7494 22.3461 19.1271 22.1825 19.5174 22.0566C19.8349 21.9432 20.1818 21.9432 20.4993 22.0566C20.7533 22.1406 20.9672 22.3158 21.0997 22.5483C21.2322 22.7807 21.274 23.054 21.2169 23.3154C21.097 23.793 20.8 24.2071 20.386 24.4736C20.0009 24.7589 19.577 24.9879 19.1271 25.1534C18.715 25.31 18.2948 25.4445 17.8683 25.5562C17.4326 25.6644 16.9913 25.7484 16.5464 25.808C16.0051 25.8709 15.4638 25.8835 14.9099 25.9087L15.6023 26.0849C16.2339 26.1608 16.8726 26.1566 17.5032 26.0724C17.9992 26.0591 18.4927 25.9959 18.9761 25.8835C19.4149 25.78 19.8381 25.6192 20.2349 25.4052C20.9413 25.0272 21.5558 24.4986 22.0351 23.8568C22.3246 23.4539 22.6268 23.0637 22.8911 22.5979C23.2149 22.0869 23.473 21.537 23.6591 20.9614C23.7724 20.5963 23.8982 20.2312 23.9989 19.8662C24.0996 19.5011 24.0619 19.4507 24.1248 19.2493C24.1878 19.0479 24.2759 18.922 24.3137 18.7457C24.3505 18.6252 24.4121 18.5137 24.4944 18.4184C24.5768 18.323 24.6782 18.2459 24.792 18.1919C24.9723 18.0714 25.191 18.0227 25.4053 18.0553C25.6196 18.088 25.8139 18.1995 25.9502 18.3681C26.1985 18.6442 26.3334 19.0039 26.3278 19.3752C26.3278 19.6773 26.3278 19.992 26.3278 20.2942C26.3278 20.5963 26.2145 21.1376 26.1516 21.553C26.1278 21.7619 26.0857 21.9684 26.0257 22.1699C25.8998 22.5979 25.7739 23.0259 25.6229 23.4287C25.4389 23.9788 25.194 24.5066 24.8927 25.0023C24.578 25.531 24.2507 26.0472 23.8982 26.5381C23.5078 27.1024 23.056 27.6217 22.5512 28.0866C22.2318 28.3592 21.8954 28.6115 21.5441 28.8419C21.2089 29.0613 20.8599 29.2589 20.4993 29.4335C20.0108 29.6852 19.4829 29.8512 18.9383 29.9245C18.6085 29.9684 18.2765 29.9936 17.9438 30C17.4906 30 17.05 29.8993 16.5968 29.8364C16.0368 29.7373 15.4885 29.5812 14.9603 29.3706C14.7085 29.2825 14.4693 29.1188 14.2176 29.0307L12.858 28.4013Z" fill="#F9C200"/>
<path d="M33.4161 19.7765C32.9229 20.4536 32.3801 21.0932 31.7922 21.69L31.3893 22.0676L31.0872 22.3572L30.8354 22.5838C30.8354 22.3698 30.911 22.1558 30.9362 21.9418C30.917 21.7576 30.917 21.572 30.9362 21.3878C30.9362 21.1738 30.9361 20.9472 31.1376 20.7584C31.3321 20.5214 31.5128 20.2734 31.6789 20.0157C31.9559 19.5877 32.258 19.1723 32.4972 18.7568C32.7363 18.3414 33.0133 17.6868 33.2525 17.1329C33.3822 16.8386 33.4915 16.5357 33.5798 16.2265C33.6931 15.7733 33.7938 15.2949 33.8819 14.8292C34.0197 13.7988 34.066 12.7583 34.0204 11.7198C33.9361 11.0434 33.7449 10.3848 33.4539 9.76852C33.3532 9.54192 33.2651 9.30274 33.1644 9.07614C33.0181 8.76492 32.8541 8.4623 32.6734 8.16975C32.4063 7.76331 32.1163 7.37244 31.8048 6.99902C31.4436 6.52474 31.0202 6.10131 30.5459 5.74015C30.2866 5.52883 30.0132 5.33535 29.7276 5.16107C29.3374 4.94706 28.9471 4.74564 28.5443 4.5694C28.1415 4.39316 27.9149 4.33021 27.6001 4.21692L27.0337 4.09102C26.2819 3.92579 25.5107 3.86647 24.7425 3.91478C24.3554 3.93977 23.9717 4.00303 23.597 4.10362C22.9791 4.25391 22.3857 4.49127 21.8346 4.80858C21.6205 4.92188 21.4317 5.06036 21.2303 5.18625C21.0289 5.31213 21.1044 5.18625 21.0541 5.18625C20.7658 4.80494 20.4014 4.4877 19.984 4.25468C19.6312 4.03926 19.2362 3.90191 18.8258 3.85185C18.5489 3.85185 18.272 3.78891 17.995 3.78891C17.5604 3.8204 17.1345 3.92687 16.7362 4.10362C16.256 4.32837 15.8275 4.64979 15.4773 5.04777C15.4108 5.1124 15.3517 5.18417 15.301 5.26178L14.2058 4.77082C14.009 4.67624 13.8073 4.5922 13.6016 4.51905C13.3498 4.43093 13.098 4.36798 12.8337 4.29244C12.5693 4.21691 12.2168 4.1288 11.9021 4.06586C11.5874 4.00291 11.3734 4.06586 11.109 3.96515C10.4045 3.86488 9.69138 3.83956 8.98154 3.88962C8.60898 3.9039 8.23834 3.95023 7.87373 4.02809C7.62753 4.05165 7.38344 4.09372 7.14357 4.15397C6.89669 4.20774 6.65297 4.27498 6.41344 4.35539C6.13649 4.4561 5.85954 4.5568 5.58259 4.68269C5.30564 4.80858 4.95315 4.98482 4.63844 5.17365C4.39279 5.32144 4.15728 5.48546 3.93348 5.6646C3.46465 6.03196 3.04196 6.45465 2.67461 6.92347C1.98948 7.74409 1.46812 8.68853 1.13879 9.70557C1.02549 10.0203 0.949959 10.3602 0.861838 10.6875C0.759395 11.027 0.700201 11.378 0.685617 11.7323C0.685617 12.1855 0.610076 12.6513 0.597487 13.1171C0.584898 13.5829 0.597487 13.7969 0.597487 14.1368C0.621858 14.2991 0.659751 14.4591 0.71078 14.6151H0.647814C0.647814 14.527 0.572299 14.4515 0.547121 14.3634C0.521944 14.2753 0.396041 13.8472 0.333097 13.5829C0.270154 13.3185 0.219807 12.8905 0.144275 12.538C0.0290712 11.9963 -0.0174348 11.4422 0.00581814 10.8889C0.00581814 10.3854 0.0939326 9.88181 0.156876 9.36567C0.176153 9.11978 0.214023 8.8757 0.270169 8.63553C0.396056 8.18234 0.521964 7.71657 0.685617 7.27597C0.850753 6.82558 1.03983 6.38435 1.25208 5.95416C1.47868 5.52614 1.75565 5.12331 2.02001 4.69529C2.41556 4.10098 2.88038 3.55582 3.40473 3.07134C3.88517 2.59939 4.41242 2.17759 4.97832 1.81248C5.44829 1.49988 5.94548 1.23024 6.46381 1.0068C6.82888 0.868327 7.19392 0.717261 7.57158 0.591374C7.94924 0.465488 8.15066 0.452914 8.4402 0.38997C8.73852 0.313096 9.04119 0.254243 9.34658 0.21373C9.90049 0.21373 10.4418 0.21373 10.9957 0.21373C11.2991 0.220144 11.6018 0.245367 11.9021 0.289259C12.2168 0.289259 12.5315 0.389967 12.8337 0.465499C13.3529 0.581913 13.859 0.750615 14.3443 0.969038C14.7735 1.13585 15.1937 1.32494 15.6032 1.53552C16.0701 1.80833 16.5162 2.11551 16.9375 2.45451C17.3782 2.7944 17.7684 3.19724 18.1964 3.5749C18.2457 3.62234 18.2919 3.67278 18.3349 3.72596C18.9403 3.03706 19.6345 2.43171 20.3994 1.92579C20.9465 1.55152 21.5333 1.23909 22.1493 0.994221C22.5773 0.830568 23.0053 0.679497 23.4081 0.55361C23.8533 0.431062 24.3082 0.346834 24.7677 0.301841C25.3546 0.263935 25.9433 0.263935 26.5301 0.301841C26.8807 0.314674 27.2298 0.352532 27.575 0.415134C27.9404 0.46096 28.3022 0.53247 28.6576 0.629139C29.0869 0.741478 29.5076 0.884532 29.9165 1.05717C30.3133 1.22304 30.7001 1.41219 31.0746 1.62365C31.4226 1.82696 31.7588 2.04971 32.0817 2.29085C32.6328 2.6739 33.1358 3.12192 33.5798 3.62525C33.8693 3.97773 34.184 4.30503 34.4358 4.68269C34.7162 5.08695 34.9726 5.50729 35.2037 5.94156C35.3645 6.20238 35.5035 6.47608 35.6192 6.75983C35.7702 7.1249 35.8961 7.50256 36.022 7.88022C36.1208 8.17271 36.2007 8.47125 36.2612 8.774C36.3493 9.23979 36.4122 9.71815 36.4626 10.2091C36.4817 10.5151 36.4817 10.8221 36.4626 11.1281C36.4754 11.7568 36.4248 12.3852 36.3115 13.0038C36.2108 13.5325 36.1479 14.0612 36.0094 14.5774C35.8611 15.1083 35.6803 15.6296 35.4681 16.1384C35.2415 16.6923 34.9771 17.221 34.7128 17.7371C34.4484 18.2533 34.2344 18.5806 33.9826 18.996L33.4161 19.7765Z" fill="url(#paint1_linear_58_361)"/>
<path d="M22.3987 29.0933C22.9343 28.6312 23.4311 28.1259 23.8841 27.5826C24.2532 27.1402 24.5978 26.6779 24.9164 26.1979C25.206 25.7447 25.4577 25.2663 25.7095 24.788C25.8617 24.4941 25.9963 24.1915 26.1123 23.8816C26.2298 23.5939 26.3307 23.2996 26.4144 23.0004C26.5026 22.7108 26.5907 22.4213 26.6662 22.1192C26.7214 21.8825 26.7635 21.6429 26.7921 21.4016C26.7921 20.8729 26.8802 20.3316 26.9054 19.8029C26.9177 19.6184 26.9177 19.4334 26.9054 19.2489C26.9054 18.758 27.346 18.6321 27.6985 18.7832C27.8987 18.8838 28.0684 19.036 28.1901 19.2241C28.3118 19.4122 28.3811 19.6294 28.3909 19.8532C28.4506 20.27 28.4717 20.6914 28.4538 21.1121C28.4328 21.5341 28.3865 21.9544 28.3153 22.3709C28.3153 22.736 28.202 23.1011 28.1265 23.4536C28.0598 23.7231 27.9757 23.988 27.8747 24.2466C27.7743 24.5081 27.6609 24.7644 27.5348 25.0146C27.4081 25.2319 27.2695 25.442 27.1194 25.644C26.9991 25.7874 26.8687 25.922 26.7291 26.0468L26.1753 26.5C25.9235 26.6888 25.6843 26.8777 25.42 27.0539C24.8577 27.4735 24.2786 27.8932 23.6827 28.3128L22.663 28.98L22.3987 29.0933Z" fill="#F39F00"/>
<path d="M28.2812 24.8125C28.3656 24.6245 28.4371 24.431 28.4953 24.2334C28.5708 23.9816 28.6212 23.7173 28.6841 23.4529C28.747 23.1885 28.747 23.2137 28.7722 23.0878C28.8352 22.7102 28.9107 22.3451 28.9484 21.9674C28.9862 21.5898 29.024 21.0485 29.024 20.5953C29.0216 20.2905 28.9878 19.9868 28.9233 19.6889C28.9125 19.6307 28.914 19.571 28.9275 19.5134C28.941 19.4558 28.9663 19.4017 29.0018 19.3544C29.0373 19.3071 29.0822 19.2676 29.1337 19.2385C29.1852 19.2094 29.2421 19.1913 29.3009 19.1853C29.4646 19.1826 29.6256 19.2276 29.7642 19.3147C29.9028 19.4019 30.013 19.5275 30.0814 19.6763C30.4033 20.2729 30.5015 20.9649 30.3584 21.6275C30.3584 21.9297 30.3584 22.2444 30.2577 22.5339C30.2173 22.7839 30.1498 23.0288 30.0563 23.2641C29.946 23.4162 29.8146 23.5519 29.666 23.6669L29.2254 24.0572L29.0617 24.1956L28.4701 24.674C28.4143 24.7245 28.3675 24.7841 28.3316 24.8502L28.2812 24.8125Z" fill="#EF8E00"/>
<path d="M3.14021 13.2566C3.14089 11.6546 3.3698 10.0608 3.82001 8.52327C3.82001 8.32185 3.93329 8.10785 3.99623 7.90643C4.09289 7.58433 4.21064 7.26893 4.34871 6.96228C4.42425 6.78604 4.49978 6.62238 4.5879 6.45873C4.67602 6.29507 4.91524 5.76635 5.09148 5.41386L4.15989 6.13143C3.67606 6.52547 3.25201 6.98767 2.90103 7.50359C2.30554 8.3526 1.85071 9.29201 1.55403 10.2857C1.55403 10.4493 1.46594 10.6256 1.42817 10.8018C1.39041 10.9781 1.30227 11.3809 1.25191 11.6704C1.20156 11.96 1.25193 12.1362 1.18899 12.3754C1.12604 12.6146 1.18899 12.9419 1.18899 13.2188C1.19543 13.4888 1.22066 13.758 1.26451 14.0245C1.26451 14.4525 1.37782 14.8805 1.46594 15.2834C1.55406 15.6862 1.64218 15.9632 1.74289 16.3031C1.8436 16.643 1.94431 16.8444 2.05761 17.1213C2.1709 17.3983 2.23385 17.5367 2.33456 17.7508C2.54857 18.1662 2.76255 18.6068 3.01432 19.0096L3.78225 20.1678C4.00884 20.4573 4.23542 20.7594 4.47461 21.049L5.43136 22.1064L6.18669 22.8617C4.20896 20.0488 3.14527 16.6952 3.14021 13.2566Z" fill="#F39F00"/>
<path d="M18.1582 10.361C18.9494 10.376 19.7143 10.0761 20.2844 9.52719C20.8546 8.9783 21.1833 8.22541 21.1983 7.43413C21.2134 6.64285 20.9135 5.87801 20.3646 5.30787C19.8157 4.73773 19.0627 4.40898 18.2715 4.39396C17.8797 4.38652 17.4902 4.45633 17.1254 4.59939C16.7606 4.74246 16.4275 4.95597 16.1452 5.22775C15.8629 5.49953 15.6369 5.82426 15.4801 6.18339C15.3233 6.54252 15.2388 6.92902 15.2313 7.32082C15.2239 7.71262 15.2937 8.10205 15.4367 8.46687C15.5798 8.83169 15.7933 9.16477 16.0651 9.44707C16.3369 9.72938 16.6616 9.95539 17.0207 10.1122C17.3799 10.269 17.7664 10.3535 18.1582 10.361ZM13.236 15.3965C13.8906 14.339 15.867 13.5837 18.2715 13.5837C20.6759 13.5837 22.539 14.2886 23.244 15.3083C23.2727 14.8877 23.2516 14.4651 23.1811 14.0495C23.1073 13.7005 22.9708 13.3678 22.7782 13.0675C22.3911 12.4982 21.8674 12.0351 21.255 11.7206C20.7204 11.4286 20.1423 11.2246 19.5429 11.1163C19.1282 11.0349 18.7067 10.9927 18.2841 10.9904C17.9721 11.0016 17.661 11.0311 17.3525 11.0785C17.1148 11.0968 16.879 11.1347 16.6475 11.1918C16.3202 11.2799 15.9929 11.4058 15.6656 11.5191C15.2921 11.6543 14.9434 11.8499 14.6334 12.0982C14.2786 12.3578 13.9718 12.6773 13.727 13.0424C13.3979 13.5112 13.218 14.0684 13.2108 14.6411L13.236 15.3965ZM29.425 15.258C29.456 14.8594 29.3957 14.459 29.2488 14.0872C29.1295 13.848 28.995 13.6167 28.846 13.3948C28.6316 13.0897 28.3521 12.836 28.0277 12.6521C27.7633 12.5136 27.5116 12.35 27.2346 12.2367C27.0335 12.1564 26.8275 12.0891 26.6177 12.0353C26.2791 11.9308 25.9272 11.8757 25.5729 11.8716H24.8931C24.3357 11.8694 23.7822 11.9631 23.2566 12.1486C23.2566 12.1486 23.2566 12.2493 23.2566 12.2871C23.2566 12.3248 23.4958 12.6647 23.6216 12.841C23.8171 13.1475 23.9498 13.4898 24.0119 13.848C24.0767 14.2265 24.1104 14.6096 24.1126 14.9936C24.1126 15.2831 24.1126 15.5601 24.1126 15.8496C24.1126 16.5043 24.1126 17.1714 24.1126 17.8261C24.1126 17.8261 24.1126 17.889 24.1126 17.9142C24.2948 17.794 24.4888 17.6927 24.6917 17.6121C24.9634 17.5357 25.2508 17.5357 25.5225 17.6121C25.9291 17.71 26.2867 17.9514 26.5297 18.2919C26.5926 18.38 26.6304 18.3674 26.7185 18.2919C26.8235 18.2275 26.9383 18.1808 27.0584 18.1534C27.3206 18.1088 27.59 18.1349 27.8388 18.2289C28.0985 18.3224 28.3287 18.4832 28.506 18.6947C28.5816 18.7954 28.6319 18.7954 28.7075 18.6947C28.8511 18.5922 29.0221 18.5352 29.1984 18.531C29.3369 18.531 29.3747 18.531 29.3747 18.3548C29.425 17.2596 29.4124 16.2525 29.425 15.2202V15.258ZM25.2456 11.3303C25.9133 11.3303 26.5537 11.065 27.0259 10.5929C27.4981 10.1207 27.7633 9.48031 27.7633 8.81257C27.7665 8.18624 27.5361 7.58124 27.1171 7.11569C26.6981 6.65013 26.1206 6.35746 25.4974 6.29484C24.8296 6.26479 24.1773 6.50124 23.6839 6.95216C23.1905 7.40308 22.8964 8.03153 22.8663 8.69928C22.8363 9.36702 23.0727 10.0194 23.5236 10.5128C23.9746 11.0062 24.603 11.3003 25.2708 11.3303H25.2456ZM13.8025 16.1644C13.8025 17.2722 16.1566 18.0527 18.2715 18.0527C20.3864 18.0527 22.7405 17.2722 22.7405 16.1644C22.7405 15.0566 20.3864 14.2886 18.2715 14.2886C16.1566 14.2886 13.8025 15.0188 13.8025 16.1266V16.1644ZM21.041 16.1644C21.041 16.8693 19.7821 17.4232 18.2715 17.4232C16.7608 17.4232 15.4894 16.8567 15.4894 16.1644C15.4894 15.472 16.7482 14.9055 18.2715 14.9055C19.7947 14.9055 21.041 15.4216 21.041 16.1266V16.1644ZM18.2715 18.7576C15.8544 18.7576 13.878 17.9897 13.236 16.9323V21.4894C13.2381 21.542 13.2607 21.5917 13.299 21.6278C13.4631 21.6898 13.6313 21.7403 13.8025 21.7789C14.4496 21.9392 15.1124 22.0279 15.7789 22.0433C16.1018 22.0621 16.4254 22.0621 16.7482 22.0433C17.0318 22.0198 17.3136 21.9778 17.5917 21.9174C17.8184 21.8551 18.0412 21.7795 18.2589 21.6908L18.989 21.4516C19.3066 21.3282 19.643 21.26 19.9835 21.2502C20.2474 21.244 20.5095 21.2956 20.7514 21.4012C21.0436 21.4956 21.3019 21.6735 21.4942 21.9128C21.6866 22.1522 21.8047 22.4426 21.8341 22.7482C21.8341 22.8489 21.8341 22.9497 21.8341 23.0504C22.0355 22.7231 22.2747 22.3958 22.4509 22.0433C22.6271 21.6908 22.7656 21.3257 22.9167 20.9606C23.0949 20.5651 23.1851 20.1356 23.1811 19.7018C23.1811 18.8206 23.1811 17.9394 23.1811 17.0581C22.539 17.9897 20.6129 18.7199 18.2715 18.7199V18.7576ZM12.6821 11.9849C12.2402 11.8864 11.7876 11.8441 11.3351 11.859C10.9118 11.847 10.4888 11.8893 10.0763 11.9849C9.82266 12.0499 9.57437 12.134 9.33354 12.2367C9.01067 12.3709 8.69912 12.5308 8.40195 12.7151C7.98939 12.9974 7.6488 13.3725 7.40747 13.8103C7.22592 14.1292 7.12641 14.4882 7.11792 14.8551C7.11792 15.7238 7.11792 16.605 7.11792 17.4862C7.13755 17.5733 7.17624 17.655 7.23121 17.7253C7.38555 17.8862 7.54953 18.0375 7.72219 18.1785C8.02432 18.4429 8.32642 18.7199 8.64114 18.9716C8.95585 19.2234 9.27057 19.45 9.58529 19.6766C9.87656 19.8938 10.1791 20.0955 10.4917 20.2808C10.8316 20.4949 11.1715 20.6837 11.524 20.8725L12.3926 21.2879C12.3975 21.2335 12.3975 21.1787 12.3926 21.1243V18.38C12.3926 16.9952 12.3926 15.6105 12.3926 14.2131C12.4111 13.8793 12.4877 13.5512 12.6192 13.2438C12.7556 12.8977 12.9515 12.5781 13.1982 12.2996C13.2019 12.2493 13.2019 12.1989 13.1982 12.1486L12.6821 11.9849ZM11.1715 11.3303C11.8392 11.3704 12.4955 11.1435 12.996 10.6997C13.4965 10.2559 13.8002 9.63139 13.8403 8.96365C13.8803 8.2959 13.6535 7.63958 13.2097 7.13908C12.7658 6.63859 12.1413 6.3349 11.4736 6.29484C11.143 6.275 10.8116 6.32048 10.4986 6.42868C10.1855 6.53688 9.89688 6.7057 9.64906 6.92546C9.40124 7.14523 9.19914 7.41165 9.05428 7.70952C8.90942 8.0074 8.82463 8.33088 8.8048 8.66151C8.78496 8.99215 8.83044 9.32345 8.93864 9.63651C9.04684 9.94957 9.21565 10.2382 9.43542 10.4861C9.65519 10.7339 9.92161 10.936 10.2195 11.0809C10.5174 11.2257 10.8408 11.3105 11.1715 11.3303Z" fill="url(#paint2_linear_58_361)"/>
<defs>
<linearGradient id="paint0_linear_58_361" x1="37.1926" y1="12.3244" x2="34.5867" y2="-2.70652" gradientUnits="userSpaceOnUse">
<stop stop-color="#9B1D1B"/>
<stop offset="1" stop-color="#D81B1A"/>
</linearGradient>
<linearGradient id="paint1_linear_58_361" x1="18.2468" y1="7.3515" x2="18.2468" y2="2.36639" gradientUnits="userSpaceOnUse">
<stop stop-color="#9B1C1A"/>
<stop offset="1" stop-color="#D81A18"/>
</linearGradient>
<linearGradient id="paint2_linear_58_361" x1="7.08015" y1="13.6844" x2="29.425" y2="13.6844" gradientUnits="userSpaceOnUse">
<stop stop-color="#9B1C1A"/>
<stop offset="1" stop-color="#D81A18"/>
</linearGradient>
</defs>
</svg>
