<svg width="30" height="30" viewBox="0 0 30 30" fill="none" xmlns="http://www.w3.org/2000/svg">
<path d="M27.2008 9.28555C26.0393 8.47713 24.439 7.53021 22.4442 6.47113C19.0595 4.67459 15.6623 3.15201 15.6363 3.1412C15.4343 3.05641 15.2208 3.01317 14.9988 3.01317C14.7769 3.01317 14.5664 3.05607 14.3637 3.1412C14.3374 3.15235 10.9682 4.65972 7.54944 6.47519C5.55256 7.53528 3.9516 8.48288 2.79151 9.29163C0.801374 10.6784 -0.00738144 11.7182 5.07233e-05 12.8807C0.0024155 13.2918 0.156802 14.6708 2.03883 15.1437C2.29321 15.2069 2.56381 15.2694 2.84522 15.3296C2.74151 17.8909 2.80164 21.9718 2.96413 23.3012C3.26379 25.7697 4.73569 26.8119 6.01571 26.9649C6.10355 26.977 6.19341 26.9868 6.28293 26.9868H23.7732C23.8299 26.9868 23.8877 26.9838 23.9441 26.9781C25.2397 26.8419 26.7325 25.8048 27.0359 23.3029C27.1984 21.9729 27.2585 17.8913 27.1548 15.3296C27.4366 15.2694 27.7082 15.2069 27.9653 15.1431C29.8571 14.6678 30.001 13.2779 30 12.8634C29.998 11.7054 29.1868 10.6689 27.2004 9.28588L27.2008 9.28555ZM25.4005 23.0988C25.2218 24.5707 24.513 25.245 23.7749 25.3227H6.28496L6.28429 25.319C5.52688 25.269 4.78704 24.6069 4.60394 23.0988C4.39753 21.4107 4.38739 15.1698 4.60327 13.9685C3.83336 13.8397 3.10028 13.6931 2.43611 13.5279C1.8939 13.3918 1.65405 13.1648 1.65236 12.8702C1.63783 10.6656 15.0039 4.67661 15.0039 4.67661C15.0059 4.67729 28.3487 10.6571 28.3524 12.8658C28.3531 13.1624 28.1136 13.3911 27.5687 13.5279C26.9042 13.6931 26.1714 13.8397 25.4015 13.9685C25.6174 15.1694 25.6072 21.4104 25.4008 23.0988H25.4005Z" fill="#E40056"/>
<path d="M15.0011 12.2952C10.078 12.2952 6.08862 14.1286 6.08862 16.3843C6.08862 18.6399 10.0787 20.4713 15.0011 20.4713C19.9236 20.4713 23.9123 18.6396 23.9123 16.3832C23.9123 14.1269 19.9243 12.2952 15.0011 12.2952ZM15.0011 19.0764C11.758 19.0764 9.12838 17.872 9.12838 16.3839C9.12838 14.8958 11.757 13.6911 15.0011 13.6911C18.2453 13.6911 20.8763 14.8972 20.8763 16.3839C20.8763 17.8707 18.2439 19.0764 15.0011 19.0764Z" fill="#E40056"/>
</svg>
