<svg width="80" height="80" viewBox="0 0 80 80" fill="none" xmlns="http://www.w3.org/2000/svg">
  <circle cx="40" cy="40" r="38" stroke="#ffffff" stroke-width="2" fill="none"/>
  
  <!-- Mobile device -->
  <rect x="28" y="20" width="24" height="40" rx="4" fill="none" stroke="#ffffff" stroke-width="2"/>
  <circle cx="40" cy="26" r="2" fill="#a1a1aa"/>
  <rect x="32" y="30" width="16" height="20" fill="none" stroke="#a1a1aa" stroke-width="1"/>
  <circle cx="40" cy="54" r="2" fill="#a1a1aa"/>
  
  <!-- Operation indicators -->
  <circle cx="20" cy="30" r="3" fill="#6b7280"/>
  <circle cx="60" cy="30" r="3" fill="#6b7280"/>
  <circle cx="20" cy="50" r="3" fill="#6b7280"/>
  <circle cx="60" cy="50" r="3" fill="#6b7280"/>
  
  <!-- Connection lines -->
  <line x1="28" y1="35" x2="23" y2="30" stroke="#6b7280" stroke-width="1"/>
  <line x1="52" y1="35" x2="57" y2="30" stroke="#6b7280" stroke-width="1"/>
  <line x1="28" y1="45" x2="23" y2="50" stroke="#6b7280" stroke-width="1"/>
  <line x1="52" y1="45" x2="57" y2="50" stroke="#6b7280" stroke-width="1"/>
  
  <!-- Screen content -->
  <rect x="34" y="32" width="12" height="2" fill="#a1a1aa"/>
  <rect x="34" y="36" width="8" height="2" fill="#6b7280"/>
  <rect x="34" y="40" width="10" height="2" fill="#6b7280"/>
</svg>