<svg width="52" height="40" viewBox="0 0 52 40" fill="none" xmlns="http://www.w3.org/2000/svg">
<path d="M25.9052 16.0258C19.99 16.0258 15.1973 18.2266 15.1973 20.9354C15.1973 23.6441 19.99 25.8449 25.9052 25.8449C31.8204 25.8449 36.6165 23.6441 36.6165 20.9354C36.6165 18.2266 31.8305 16.0258 25.9052 16.0258ZM23.0272 35.4084C23.0272 35.573 23.076 35.7339 23.1676 35.8707C23.2592 36.0075 23.3893 36.1141 23.5415 36.1768C23.6937 36.2396 23.8611 36.2558 24.0224 36.2233C24.1838 36.1908 24.3319 36.1111 24.448 35.9944C24.564 35.8776 24.6428 35.729 24.6743 35.5674C24.7058 35.4059 24.6886 35.2386 24.6249 35.0868C24.5612 34.935 24.4539 34.8055 24.3165 34.7148C24.1791 34.6241 24.0179 34.5762 23.8533 34.5772C23.6336 34.5781 23.4232 34.6661 23.2683 34.8219C23.1134 34.9778 23.0267 35.1887 23.0272 35.4084ZM25.9949 0.376144C25.9949 0.376144 -6.73833 14.9169 2.04133 17.1025C3.34321 17.4225 4.78221 17.7086 6.29402 17.949C5.88941 22.0324 5.40521 29.2393 6.17381 35.4304C6.94241 41.6215 12.7103 40.2503 12.9355 35.8824C13.0218 34.0964 13.037 31.9379 13.037 31.9379H14.4473C14.4094 32.1615 14.393 32.3883 14.3982 32.615V38.1527C14.3935 38.2482 14.4083 38.3436 14.4416 38.4333C14.4749 38.5229 14.5261 38.6048 14.592 38.6741C14.658 38.7433 14.7373 38.7984 14.8252 38.8361C14.913 38.8738 15.0077 38.8932 15.1033 38.8932C15.1989 38.8932 15.2935 38.8738 15.3814 38.8361C15.4693 38.7984 15.5486 38.7433 15.6146 38.6741C15.6805 38.6048 15.7317 38.5229 15.765 38.4333C15.7983 38.3436 15.8131 38.2482 15.8084 38.1527V36.111H17.283L18.468 38.4811C18.526 38.5979 18.6153 38.6963 18.7259 38.7653C18.8365 38.8344 18.9641 38.8714 19.0944 38.8722C19.2049 38.8711 19.3137 38.8451 19.4127 38.796C19.4969 38.7546 19.572 38.6969 19.6338 38.6264C19.6956 38.5558 19.7429 38.4737 19.773 38.3849C19.803 38.296 19.8152 38.2021 19.8089 38.1085C19.8025 38.0149 19.7778 37.9235 19.7361 37.8395H19.7564L18.7525 35.8435C19.0771 35.6595 19.3471 35.3927 19.5351 35.0703C19.723 34.7479 19.8222 34.3815 19.8224 34.0083C19.8224 33.2719 19.3145 32.444 18.6576 31.9362H23.3674C22.495 32.0626 21.7029 32.5148 21.1503 33.2016C20.5978 33.8885 20.3259 34.7591 20.3893 35.6384C20.4526 36.5176 20.8467 37.3402 21.492 37.9407C22.1374 38.5412 22.9862 38.8751 23.8677 38.8751C24.7492 38.8751 25.5981 38.5412 26.2434 37.9407C26.8888 37.3402 27.2828 36.5176 27.3462 35.6384C27.4096 34.7591 27.1376 33.8885 26.5851 33.2016C26.0325 32.5148 25.2404 32.0626 24.368 31.9362H28.0366C28.0161 32.1833 28.0088 32.4314 28.0146 32.6794V38.1662C28.0148 38.2594 28.0335 38.3515 28.0695 38.4374C28.1055 38.5233 28.1581 38.6013 28.2243 38.6667C28.2906 38.7322 28.3692 38.7839 28.4555 38.8189C28.5418 38.8538 28.6342 38.8714 28.7273 38.8705C28.9158 38.8714 29.097 38.798 29.2317 38.6661C29.3664 38.5343 29.4437 38.3547 29.4468 38.1662V36.1855H31.3091C31.8664 36.1735 32.3969 35.9437 32.7868 35.5453C33.1767 35.1468 33.3949 34.6115 33.3948 34.0541C33.3948 33.3667 32.9445 32.5185 32.3469 31.9565H33.989C33.9685 32.2031 33.9612 32.4506 33.967 32.698V38.1848C33.976 38.3685 34.0552 38.5417 34.1884 38.6686C34.3215 38.7954 34.4984 38.8662 34.6823 38.8662C34.8662 38.8662 35.043 38.7954 35.1762 38.6686C35.3094 38.5417 35.3886 38.3685 35.3976 38.1848V36.1855H37.2598C37.8168 36.1735 38.3469 35.9436 38.7363 35.545C39.1256 35.1465 39.3432 34.6112 39.3421 34.0541C39.3421 33.3667 38.8986 32.5304 38.2993 31.9565H39.9059V33.3464C39.8951 33.9647 40.0933 34.5685 40.4685 35.0601C40.8437 35.5517 41.3738 35.9023 41.973 36.0551V38.1679C41.9683 38.2632 41.9831 38.3584 42.0163 38.4479C42.0495 38.5373 42.1006 38.619 42.1664 38.6881C42.2321 38.7572 42.3113 38.8122 42.3989 38.8498C42.4866 38.8873 42.581 38.9067 42.6764 38.9067C42.7718 38.9067 42.8662 38.8873 42.9539 38.8498C43.0416 38.8122 43.1207 38.7572 43.1865 38.6881C43.2522 38.619 43.3033 38.5373 43.3365 38.4479C43.3698 38.3584 43.3845 38.2632 43.3798 38.1679V36.0517C44.6174 35.7335 45.75 34.6466 45.75 33.343V31.9616C45.75 31.9616 46.7945 23.2141 45.8329 17.9354C47.3007 17.6917 48.6974 17.414 49.9637 17.1025C58.7264 14.9169 25.9983 0.377837 25.9915 0.376144H25.9949ZM17.7113 34.6872H15.7983V33.3481H17.7113C17.8077 33.3335 17.9061 33.3399 17.9998 33.3669C18.0935 33.3938 18.1802 33.4407 18.2542 33.5042C18.3281 33.5678 18.3874 33.6466 18.428 33.7352C18.4687 33.8238 18.4898 33.9202 18.4898 34.0177C18.4898 34.1151 18.4687 34.2115 18.428 34.3001C18.3874 34.3887 18.3281 34.4675 18.2542 34.5311C18.1802 34.5946 18.0935 34.6415 17.9998 34.6684C17.9061 34.6954 17.8077 34.7018 17.7113 34.6872ZM25.9204 35.4033C25.9201 35.8101 25.799 36.2076 25.5726 36.5456C25.3462 36.8835 25.0246 37.1467 24.6485 37.3017C24.2725 37.4568 23.8588 37.4967 23.46 37.4165C23.0613 37.3364 22.6952 37.1396 22.4083 36.8513C22.1214 36.563 21.9265 36.1959 21.8483 35.7968C21.7701 35.3976 21.8121 34.9842 21.969 34.6089C22.1259 34.2336 22.3906 33.9133 22.7297 33.6885C23.0687 33.4638 23.4669 33.3447 23.8736 33.3464C24.4175 33.3477 24.9386 33.565 25.3224 33.9504C25.7062 34.3357 25.9213 34.8577 25.9204 35.4016V35.4033ZM31.3108 34.7532V34.7634H29.4604V33.3329H31.3125C31.4917 33.3453 31.6595 33.4252 31.7821 33.5565C31.9047 33.6879 31.9728 33.8609 31.9728 34.0405C31.9728 34.2202 31.9047 34.3931 31.7821 34.5245C31.6595 34.6558 31.4917 34.7358 31.3125 34.7482L31.3108 34.7532ZM37.2547 34.7532V34.7634H35.3925V33.3329H37.2547C37.434 33.3453 37.6018 33.4252 37.7244 33.5565C37.8469 33.6879 37.9151 33.8609 37.9151 34.0405C37.9151 34.2202 37.8469 34.3931 37.7244 34.5245C37.6018 34.6558 37.434 34.7358 37.2547 34.7482V34.7532ZM25.912 27.9543C17.4624 27.9543 10.6111 24.8105 10.6111 20.9371C10.6111 17.0636 17.4624 13.9198 25.912 13.9198C34.3615 13.9198 41.2095 17.0636 41.2095 20.9371C41.2095 24.8105 34.3699 27.9526 25.9052 27.9526L25.912 27.9543ZM43.9724 33.3481C43.9835 33.526 43.958 33.7043 43.8976 33.872C43.8372 34.0397 43.743 34.1933 43.6209 34.3232C43.4989 34.4531 43.3515 34.5567 43.1879 34.6274C43.0243 34.6982 42.8479 34.7347 42.6696 34.7347C42.4914 34.7347 42.315 34.6982 42.1514 34.6274C41.9878 34.5567 41.8404 34.4531 41.7183 34.3232C41.5963 34.1933 41.5021 34.0397 41.4417 33.872C41.3813 33.7043 41.3558 33.526 41.3669 33.3481V31.9616H43.9724V33.3481Z" fill="#DA2128"/>
</svg>
