<svg width="30" height="30" viewBox="0 0 30 30" fill="none" xmlns="http://www.w3.org/2000/svg">
<path d="M17.0436 10.9622L15.6306 12.7022L13.0986 13.8213C12.9923 13.8689 12.8985 13.9405 12.8245 14.0306C12.7506 14.1206 12.6986 14.2267 12.6726 14.3402L11.0796 21.5102C11.0486 21.6455 11.0563 21.7867 11.102 21.9178C11.1476 22.0489 11.2293 22.1644 11.3376 22.2512C11.4457 22.3383 11.5759 22.3936 11.7136 22.4111C11.8513 22.4286 11.9911 22.4075 12.1176 22.3502L18.8376 19.2752C18.9447 19.2267 19.0388 19.1536 19.1123 19.0619C19.1858 18.9701 19.2366 18.8623 19.2606 18.7472L19.8006 16.0862L21.2106 14.3492C21.7529 14.622 22.3721 14.7014 22.9656 14.5743C23.5592 14.4472 24.0916 14.1212 24.4746 13.6502L24.5196 13.5902L28.6866 7.26922C28.7883 7.11457 28.8289 6.92764 28.8006 6.74474C28.7724 6.56183 28.6772 6.39595 28.5336 6.27921L23.4336 2.1452C23.2901 2.02841 23.1084 1.96925 22.9237 1.97924C22.739 1.98922 22.5646 2.06761 22.4346 2.19918L17.1036 7.57223L17.0526 7.62621C16.6725 8.09862 16.4646 8.6863 16.4629 9.29261C16.4613 9.89892 16.6661 10.4878 17.0436 10.9622ZM14.3946 19.6622L16.3566 17.2442C16.4811 17.0907 16.5395 16.8939 16.519 16.6973C16.4984 16.5006 16.4006 16.3202 16.2471 16.1957C16.0935 16.0712 15.8968 16.0128 15.7002 16.0333C15.5035 16.0538 15.3231 16.1516 15.1986 16.3052L13.2216 18.7412L14.0466 15.0302L15.9816 14.1752L18.2856 16.0472L17.8746 18.0692L14.3946 19.6622ZM17.1456 13.2002L18.1596 11.9492L20.0136 13.4492L18.9966 14.7002L17.1456 13.2002ZM23.0226 3.7202L27.0696 7.00519L23.2956 12.7292C23.0962 12.9603 22.8148 13.1048 22.5108 13.1323C22.2068 13.1597 21.9041 13.0679 21.6666 12.8762L18.3876 10.2122C18.1506 10.0193 17.998 9.74166 17.9621 9.43815C17.9263 9.13463 18.01 8.82904 18.1956 8.58619L23.0226 3.7202Z" fill="#F68B1F"/>
<path d="M21.9155 16.1104L21.1415 18.5584C22.5365 19.2964 23.3855 20.2564 23.3855 21.3064C23.3855 23.6254 19.2785 25.5064 14.2235 25.5064C9.16847 25.5064 5.06447 23.6284 5.06447 21.3064C5.06447 19.7404 6.93348 18.3783 9.70248 17.6553L10.1375 15.3094C4.57248 16.1074 0.537476 18.4924 0.537476 21.3094C0.537476 24.7744 6.66648 27.5884 14.2265 27.5884C21.7865 27.5884 27.9185 24.7744 27.9185 21.3094C27.9125 19.1464 25.5425 17.2414 21.9155 16.1104Z" fill="#DB2628"/>
<g style="mix-blend-mode:overlay" opacity="0.45">
<path d="M21.9155 16.1104L21.1415 18.5584C22.5365 19.2964 23.3855 20.2564 23.3855 21.3064C23.3855 23.6254 19.2785 25.5064 14.2235 25.5064C9.16847 25.5064 5.06447 23.6284 5.06447 21.3064C5.06447 19.7404 6.93348 18.3783 9.70248 17.6553L10.1375 15.3094C4.57248 16.1074 0.537476 18.4924 0.537476 21.3094C0.537476 24.7744 6.66648 27.5884 14.2265 27.5884C21.7865 27.5884 27.9185 24.7744 27.9185 21.3094C27.9125 19.1464 25.5425 17.2414 21.9155 16.1104Z" fill="url(#paint0_linear_58_366)"/>
</g>
<defs>
<linearGradient id="paint0_linear_58_366" x1="13.7795" y1="19.7284" x2="10.6475" y2="8.52641" gradientUnits="userSpaceOnUse">
<stop stop-color="white" stop-opacity="0"/>
<stop offset="1" stop-color="white"/>
</linearGradient>
</defs>
</svg>
