<svg width="30" height="30" viewBox="0 0 30 30" fill="none" xmlns="http://www.w3.org/2000/svg">
<path d="M29.9897 10.3173C29.9833 10.2376 29.9727 10.1558 29.96 10.0751C29.9568 10.0506 29.9525 10.0251 29.9472 9.99965C29.943 9.97415 29.9377 9.94865 29.9323 9.92315C29.5438 8.05858 28.9428 6.23756 28.413 4.40274C28.121 3.39342 27.6974 3.00351 26.7652 2.93339C26.659 2.92489 26.5465 2.92064 26.4265 2.92064H26.4148C24.1098 2.9217 21.8048 2.92276 19.4997 2.92489H19.4859C14.1146 2.92808 8.74438 2.93233 3.37307 2.93658C2.42176 2.93658 1.87921 3.33393 1.62333 4.23487C1.0914 6.10688 0.565845 7.9789 0.0604594 9.85834C0.0402865 9.93271 0.0254222 10.0103 0.0158666 10.09C0.0158666 10.0921 0.0158666 10.0953 0.0148049 10.0974C0.0116197 10.1431 0.00737272 10.1888 0.00312579 10.2344C-0.00642982 10.4076 0.00631099 10.584 0.0360395 10.7487C0.211226 11.7293 0.596635 12.5293 1.18802 13.1434C1.20713 13.1625 1.22518 13.1806 1.24429 13.1986C1.39187 13.3463 1.5522 13.4823 1.7242 13.6066C1.738 13.6172 1.75286 13.6279 1.76667 13.6374C1.88452 13.7203 2.00768 13.7979 2.13721 13.8712C2.168 13.9392 2.18711 14.0188 2.19667 14.1145C2.36018 15.7984 2.52368 17.4813 2.69144 19.1653C2.74346 19.7018 2.79761 20.2383 2.85176 20.7749C2.91334 21.3985 2.97704 22.0222 3.03969 22.6458C3.13312 23.5616 3.24779 24.4732 3.34759 25.388C3.39006 25.7673 3.42828 26.1476 3.46226 26.528C3.49411 26.8786 3.60028 27.0252 3.86996 27.0666C3.92836 27.0762 3.99631 27.0794 4.07169 27.0794C6.75682 27.0677 9.443 27.0666 12.1281 27.0666H17.8721C20.5572 27.0666 23.2434 27.0677 25.9285 27.0794C26.0039 27.0794 26.0719 27.0762 26.1303 27.0666C26.4 27.0262 26.5061 26.8786 26.538 26.528C26.572 26.1476 26.6102 25.7673 26.6526 25.388C26.7535 24.4732 26.8671 23.5616 26.9606 22.6458C27.0232 22.0222 27.0869 21.3985 27.1485 20.7749C27.2026 20.2383 27.2557 19.7018 27.3088 19.1653C27.4766 17.4813 27.6401 15.7984 27.8036 14.1145C27.8089 14.0603 27.8184 14.0135 27.8301 13.9689C28.7931 13.4781 29.5119 12.6653 29.7848 11.6974C29.8219 11.6018 29.8548 11.5051 29.8814 11.4063C29.8973 11.3521 29.9122 11.2969 29.9239 11.2406C29.926 11.2321 29.9281 11.2225 29.9302 11.214C29.9355 11.1864 29.9408 11.1588 29.9461 11.1301C29.9589 11.0674 29.9684 11.0047 29.9759 10.941C29.9791 10.9187 29.9822 10.8963 29.9833 10.874C29.9865 10.8549 29.9886 10.8358 29.9886 10.8167C29.9907 10.7954 29.9929 10.7742 29.9939 10.7529C29.9971 10.7136 29.9982 10.6743 29.9992 10.636C30.0014 10.5309 29.9992 10.4246 29.9907 10.3173H29.9897ZM15.7518 4.80009C15.7582 4.74803 15.7688 4.70234 15.7837 4.66197C15.8527 4.48454 16.0162 4.42611 16.3007 4.43142C17.6407 4.45161 18.9827 4.45055 20.3226 4.43142C20.6464 4.42717 20.8184 4.50154 20.8874 4.76184C20.897 4.79903 20.9044 4.83834 20.9097 4.88296C20.9129 4.90633 20.915 4.93077 20.9172 4.95627C20.9522 5.42055 20.9904 5.88483 21.0308 6.34806C21.0531 6.60517 21.0754 6.86121 21.0977 7.11832C21.1284 7.45936 21.1603 7.79934 21.1911 8.14039C21.2144 8.39006 21.2367 8.63973 21.2601 8.8894C21.2845 9.16139 21.3089 9.43231 21.3334 9.70429C21.3387 9.75847 21.3419 9.81266 21.344 9.86684C21.3482 9.93909 21.3493 10.0103 21.3472 10.0804V10.0963C21.3472 10.141 21.345 10.1856 21.3419 10.2291C21.3397 10.2759 21.3365 10.3216 21.3312 10.3673V10.3704C21.327 10.4172 21.3206 10.4639 21.3143 10.5096C21.3079 10.5564 21.3004 10.602 21.292 10.6477C21.2835 10.6945 21.2739 10.7402 21.2633 10.7859C21.2421 10.8815 21.2155 10.975 21.1847 11.0663C21.1709 11.112 21.155 11.1566 21.1369 11.2013C21.121 11.2459 21.103 11.2894 21.0828 11.3319C21.0456 11.418 21.0042 11.5019 20.9575 11.5827C20.914 11.6634 20.8651 11.741 20.811 11.8164C20.7643 11.8833 20.7154 11.9482 20.6634 12.0098C20.6294 12.0501 20.5944 12.0905 20.5562 12.1288C19.9595 12.763 19.0729 13.0892 18.076 12.9298C17.1724 12.7864 16.3825 12.1447 16.0035 11.3149C15.9769 11.2565 15.9525 11.1991 15.9313 11.1407C15.9196 11.111 15.909 11.0812 15.8994 11.0515C15.8867 11.0175 15.876 10.9824 15.8676 10.9484C15.8569 10.9176 15.8484 10.8857 15.8421 10.8549C15.8336 10.8273 15.8272 10.7997 15.8219 10.771C15.8155 10.7455 15.8102 10.72 15.807 10.6945C15.8028 10.6839 15.8017 10.6722 15.8007 10.6605C15.7943 10.6275 15.789 10.5935 15.7847 10.5596C15.7794 10.5245 15.7762 10.4894 15.7731 10.4544C15.7688 10.4108 15.7656 10.3673 15.7646 10.3226C15.7614 10.2217 15.7582 10.1218 15.7561 10.0209C15.7539 9.90828 15.7518 9.79672 15.7508 9.6841C15.7444 8.99565 15.7582 8.30719 15.7582 7.61873H15.7508V7.61448C15.7508 6.7316 15.7667 5.84977 15.7444 4.96795C15.7433 4.90527 15.7444 4.84896 15.7518 4.79903V4.80009ZM1.56918 10.7784C1.51079 10.4947 1.52353 10.1696 1.59785 9.88915C2.02679 8.26681 2.49608 6.6551 2.92396 5.0317C3.04393 4.57591 3.26159 4.39317 3.73937 4.43036C4.26599 4.47073 4.80004 4.43886 5.32985 4.43886C5.93185 4.43992 6.53385 4.45267 7.13479 4.43461C7.49791 4.42399 7.64336 4.54085 7.6062 4.92758C7.4427 6.64235 7.30149 8.36137 7.14541 10.0772C7.14541 10.0804 7.14541 10.0825 7.14541 10.0857C7.14116 10.1335 7.13692 10.1824 7.13267 10.2302C7.12736 10.2929 7.12099 10.3556 7.11568 10.4172C6.98827 11.8047 5.84372 12.8884 4.4348 12.9692C3.10551 13.0457 1.84417 12.098 1.57025 10.7784H1.56918ZM25.6822 18.9475C25.6387 19.3661 25.5952 19.7836 25.5506 20.2012C25.5293 20.3913 25.5102 20.5815 25.489 20.7727C25.352 22.0402 25.2151 23.3056 25.0908 24.5731C25.0133 25.3688 25.0346 25.3901 24.2786 25.3901H23.4452C20.6305 25.3901 17.8148 25.3869 15.0001 25.3922C12.1855 25.388 9.36974 25.3901 6.55509 25.3901H5.72163C4.96567 25.3901 4.98584 25.3678 4.9094 24.5731C4.78518 23.3056 4.64821 22.0402 4.51125 20.7727C4.49001 20.5826 4.4709 20.3924 4.44967 20.2012C4.40507 19.7847 4.36048 19.3661 4.31801 18.9475C4.163 17.4505 4.01223 15.9525 3.87527 14.4534C4.02391 14.4672 4.1768 14.4746 4.33288 14.4725C4.77244 14.4683 5.18333 14.4034 5.56767 14.2845C5.57298 14.2834 5.57723 14.2813 5.58254 14.2791C5.65049 14.2536 5.72056 14.2303 5.79276 14.2069C6.58694 13.9105 7.26857 13.3761 7.87588 12.6579C7.96507 12.7673 8.05532 12.8703 8.14769 12.9702C8.17848 13.0032 8.20927 13.0361 8.24112 13.068C8.28465 13.1136 8.32924 13.1572 8.37384 13.1986C8.65201 13.4632 8.94717 13.6927 9.26251 13.8818L9.26888 13.885C9.30923 13.9083 9.34851 13.9317 9.38885 13.954C9.99935 14.294 10.6831 14.481 11.4624 14.4725C11.6174 14.4714 11.7682 14.4619 11.9147 14.4459C12.5072 14.3801 13.0423 14.2005 13.5328 13.9211C13.6018 13.8829 13.6698 13.8404 13.7367 13.7968C13.7717 13.7745 13.8067 13.7511 13.8418 13.7267C13.8768 13.7033 13.9108 13.6789 13.9448 13.6544C13.9798 13.6289 14.0138 13.6034 14.0477 13.5779C14.1752 13.4823 14.2994 13.3782 14.4204 13.2666C14.4608 13.2295 14.5011 13.1912 14.5415 13.153C14.5733 13.1221 14.6052 13.0903 14.637 13.0584C14.6689 13.0265 14.6996 12.9947 14.7315 12.9617C14.7952 12.8937 14.8589 12.8247 14.9226 12.7535C14.9492 12.7216 14.9768 12.6897 15.0044 12.6579H15.0054C15.0097 12.6642 15.0139 12.6685 15.0182 12.6738C15.5819 13.3601 16.2179 13.8627 16.9484 14.158C17.0578 14.2026 17.1682 14.242 17.2818 14.277C17.6799 14.4003 18.1057 14.4651 18.5601 14.4683C18.9009 14.4714 19.2237 14.4364 19.5305 14.3663C20.5179 14.1421 21.3461 13.5588 22.0925 12.7046C22.1148 12.7365 22.1371 12.7673 22.1615 12.7981C22.5342 13.3028 23.0491 13.7224 23.6575 14.0146C23.9314 14.1474 24.2255 14.2536 24.5324 14.3301C24.5398 14.3333 24.5472 14.3354 24.5536 14.3386C24.5589 14.3397 24.5632 14.3408 24.5685 14.3418C24.6109 14.3535 24.6555 14.3641 24.6991 14.3737C24.9443 14.4279 25.1991 14.4587 25.4656 14.4672C25.5431 14.4704 25.6206 14.4725 25.6992 14.4725C25.8436 14.4725 25.9848 14.4651 26.125 14.4534C25.9869 15.9525 25.8372 17.4505 25.6822 18.9475Z" fill="#FF4200"/>
<path d="M19.3575 16.8421C18.2755 16.5074 17.0015 16.2928 15.6265 16.2429C15.4195 16.2354 15.2114 16.2312 15.0001 16.2312C10.6937 16.2312 7.20166 17.8323 7.20166 19.8084C7.20166 21.7845 10.6905 23.3877 14.9969 23.3877H14.999C15.1923 23.3877 15.3834 23.3845 15.5724 23.3782C16.7021 23.341 17.7649 23.1933 18.7087 22.9585C21.1454 22.3529 22.7953 21.1694 22.7953 19.8084C22.7953 18.5738 21.431 17.4848 19.3564 16.8421H19.3575ZM16.2699 22.2456C15.8728 22.2892 15.4588 22.3126 15.0341 22.3136C15.0224 22.3136 15.0097 22.3136 14.998 22.3136C11.9816 22.3136 9.5396 21.1906 9.5396 19.8084C9.5396 18.4262 11.9816 17.3032 14.998 17.3032C15.0139 17.3032 15.0288 17.3032 15.0447 17.3032C15.445 17.3042 15.8357 17.3255 16.2105 17.3648C18.644 17.6176 20.4553 18.6163 20.4553 19.8073C20.4553 20.9983 18.6694 21.9811 16.2689 22.2435L16.2699 22.2456Z" fill="#FF4200"/>
</svg>
