<svg width="30" height="30" viewBox="0 0 30 30" fill="none" xmlns="http://www.w3.org/2000/svg">
<path style="mix-blend-mode:multiply" d="M22.5683 6.94904C24.0827 6.94904 25.3249 5.72314 25.3249 4.22176C25.3249 2.72039 24.0827 1.50138 22.5683 1.50138C21.0539 1.50138 19.8048 2.72727 19.8048 4.22176C19.8048 5.71625 21.047 6.94904 22.5683 6.94904ZM15.0244 5.99174C16.6783 5.99174 18.0601 4.6281 18.0601 2.99587C18.0601 1.36364 16.6783 0 15.0244 0C13.3704 0 11.9887 1.36364 11.9887 2.99587C11.9887 4.6281 13.3216 5.99174 15.0244 5.99174ZM14.9825 12.4036C16.3643 12.4036 17.4878 11.8939 17.4878 11.2741C17.4878 10.6543 16.3643 10.1377 14.9825 10.1377C13.6007 10.1377 12.4772 10.6474 12.4772 11.2741C12.4772 11.9008 13.6007 12.4036 14.9825 12.4036ZM19.9025 8.53306C20.6422 9.62121 21.1935 10.8953 21.6052 12.1625L22.338 14.4766C22.4776 14.8829 22.4287 15.2479 22.2473 15.5234H27.7185C28.0884 15.5234 28.549 15.2066 28.4094 14.8416L27.7185 12.7066C26.8881 10.0275 25.4156 7.62397 22.5683 7.62397C21.5075 7.62397 20.5864 7.98898 19.9025 8.53306ZM2.33019 15.5234H7.75959C7.62002 15.2548 7.52929 14.8898 7.66887 14.4766L8.40163 12.1625C8.81337 10.8884 9.36468 9.62121 10.1463 8.53306C9.41353 7.98898 8.53422 7.62397 7.43159 7.62397C4.62617 7.62397 3.15368 10.0275 2.28134 12.7066L1.59046 14.8416C1.49973 15.2066 1.91147 15.5234 2.32321 15.5234H2.33019ZM26.8462 16.6116V16.7493C26.8462 17.6102 25.604 18.4711 23.6709 19.1529C22.7079 19.5179 21.5075 19.8347 20.2653 20.0138C20.3561 18.9669 20.4049 17.8788 20.4049 16.7424V16.6047H18.751V16.7424C18.751 17.9683 18.7021 19.146 18.5695 20.241C17.4669 20.3788 16.2666 20.4201 15.0244 20.4201C13.7822 20.4201 12.5888 20.3719 11.4373 20.241C11.2978 19.1529 11.2559 17.9683 11.2559 16.7424V16.6047H9.60195V16.7424C9.60195 17.8788 9.69268 18.9669 9.7834 20.0138C8.49235 19.8347 7.34785 19.511 6.33594 19.1529C4.40285 18.4711 3.2095 17.6102 3.2095 16.7493V16.6116H1.54858V16.7493C1.54858 20.427 3.06993 23.7397 5.50548 26.1432C7.94103 28.5468 11.2978 30 15.0244 30C18.751 30 22.1077 28.5468 24.5433 26.1432C26.9788 23.7397 28.4513 20.427 28.4513 16.7493V16.6116H26.8392H26.8462ZM6.65696 25.0138C5.18446 23.5124 4.08184 21.7011 3.57239 19.6143C4.17256 20.0207 4.95417 20.3857 5.77765 20.7025C6.971 21.1088 8.40163 21.4738 9.96484 21.7011C10.237 23.2438 10.565 24.6556 11.0256 25.8333C11.3466 26.6942 11.6676 27.4242 12.0864 28.0579C10.0137 27.5138 8.12946 26.4669 6.65696 25.0138ZM15.0244 28.416C14.152 28.416 13.2309 27.2383 12.54 25.2824C12.1701 24.332 11.8979 23.1474 11.6676 21.9215C12.7284 22.011 13.8729 22.0592 15.0244 22.0592C16.1758 22.0592 17.2785 22.011 18.3392 21.9215C18.1578 23.1474 17.8298 24.3251 17.4669 25.2824C16.776 27.2314 15.9037 28.416 15.0313 28.416H15.0244ZM23.3499 25.0138C21.8774 26.4669 20.042 27.5138 17.9205 28.0579C18.3323 27.4242 18.7021 26.6942 19.0231 25.8333C19.4349 24.6556 19.8048 23.2438 20.035 21.7011C21.5983 21.4738 23.0219 21.1088 24.2222 20.7025C25.0946 20.3857 25.8343 20.0207 26.4763 19.6143C25.925 21.7011 24.8643 23.5193 23.3499 25.0138ZM7.43857 6.94904C8.95992 6.94904 10.1951 5.72314 10.1951 4.22176C10.1951 2.72039 8.95294 1.50138 7.43857 1.50138C5.9242 1.50138 4.72387 2.72727 4.72387 4.22176C4.72387 5.71625 5.96607 6.94904 7.43857 6.94904ZM8.5412 14.7521C8.40163 15.1584 8.86222 15.5234 9.32281 15.5234H20.7329C21.1447 15.5234 21.6541 15.1584 21.5145 14.7521L20.7329 12.438C19.8117 9.44215 18.1578 6.76308 15.0313 6.76308C11.9049 6.76308 10.244 9.44215 9.28094 12.438L8.54818 14.7521H8.5412ZM14.9825 9.44215C17.2157 9.44215 19.0231 10.2617 19.0231 11.2741C19.0231 12.2865 17.2157 13.1061 14.9825 13.1061C12.7493 13.1061 10.9419 12.2865 10.9419 11.281C10.9419 10.2755 12.7493 9.44904 14.9825 9.44904V9.44215Z" fill="#1075A1"/>
</svg>
