<svg width="30" height="30" viewBox="0 0 30 30" fill="none" xmlns="http://www.w3.org/2000/svg">
<path fill-rule="evenodd" clip-rule="evenodd" d="M21.8647 13.1053H22.3308C23.7143 13.1053 25.0827 13.5263 26.2105 14.3233C26.4361 13.9774 26.5263 13.5714 26.4662 13.1654C26.406 12.7594 26.2105 12.3835 25.8947 12.1278L14.3759 1.58646C14.0601 1.30074 13.6541 1.13533 13.218 1.13533C12.7819 1.13533 12.3759 1.30074 12.0602 1.58646L0.556384 12.1278C0.39097 12.2782 0.25564 12.4586 0.165414 12.6692C0.0751889 12.8797 0.0150376 13.0902 0 13.3158C0 13.5413 0.0300633 13.7669 0.105251 13.9774C0.180439 14.188 0.300757 14.3835 0.451132 14.5489C0.616546 14.7293 0.796982 14.8647 1.02255 14.9549C1.23307 15.0451 1.47368 15.1053 1.71429 15.0902C2.1203 15.0902 2.51127 14.9248 2.81202 14.6391L13.188 5.18044L21.8496 13.1053H21.8647ZM20.7669 21.3609C21.0226 21.6316 21.3534 21.8271 21.7293 21.9323V17.6316C21.3684 17.7368 21.0376 17.9323 20.7669 18.188C20.3459 18.609 20.1203 19.1804 20.1053 19.7669C20.1053 20.3534 20.3308 20.9248 20.7368 21.3609H20.7519H20.7669ZM18.1955 25.3459H14.5564C14.3007 25.3459 14.0902 25.1955 14.0902 25V22.6692C14.0902 22.4887 14.3007 22.3233 14.5564 22.3233H16.1203C15.7594 21.4361 15.609 20.4887 15.6541 19.5413H14.5564C14.3007 19.5413 14.0902 19.391 14.0902 19.1955V16.8647C14.0902 16.6842 14.3007 16.5188 14.5564 16.5188H16.4812C16.7819 15.9774 17.1429 15.4812 17.579 15.0601C18.1654 14.4737 18.8421 14.0075 19.609 13.6767L13.188 8.29323L4.7218 15.421V28.8647H21.7143V26.4286C20.5414 26.3233 19.4286 25.9023 18.4812 25.2256C18.406 25.2857 18.3008 25.3158 18.2105 25.3308L18.1955 25.3459ZM12.391 25C12.391 25.1804 12.1955 25.3459 11.9399 25.3459H8.30076C8.04512 25.3459 7.84963 25.1955 7.84963 25V22.6692C7.84963 22.4887 8.04512 22.3233 8.30076 22.3233H11.9399C12.1955 22.3233 12.391 22.4737 12.391 22.6692V25ZM12.391 19.2105C12.391 19.391 12.1955 19.5564 11.9399 19.5564H8.30076C8.04512 19.5564 7.84963 19.406 7.84963 19.2105V16.8797C7.84963 16.6992 8.04512 16.5338 8.30076 16.5338H11.9399C12.1955 16.5338 12.391 16.6842 12.391 16.8797V19.2105ZM29.7293 26.1429L27.5338 23.9474C27.4286 23.8421 27.3083 23.7669 27.1579 23.7368C27.0226 23.7068 26.8722 23.7218 26.7368 23.782L26.3158 23.3459C27.2331 22.3083 27.7143 20.9699 27.6541 19.5865C27.594 18.203 26.9925 16.9098 26 15.9474C24.9925 15 23.6541 14.4737 22.2857 14.5038C20.9022 14.5188 19.5789 15.0752 18.6015 16.0526C17.6241 17.0301 17.0677 18.3534 17.0526 19.7368C17.0376 21.1203 17.5489 22.4586 18.4962 23.4511C19.4436 24.4586 20.7519 25.0451 22.1353 25.1053C23.5188 25.1654 24.8722 24.6842 25.8947 23.7669L26.3308 24.188C26.2707 24.3233 26.2556 24.4737 26.2857 24.609C26.3158 24.7444 26.391 24.8797 26.4962 24.985L28.6917 27.1804C28.7669 27.2556 28.8421 27.3158 28.9474 27.3609C29.0376 27.406 29.1429 27.421 29.2481 27.421C29.3534 27.421 29.4586 27.406 29.5489 27.3609C29.6391 27.3158 29.7293 27.2556 29.8045 27.1804C29.8797 27.1053 29.9248 27.015 29.9549 26.9248C29.985 26.8346 30 26.7293 30 26.6241C30 26.5188 29.9699 26.4286 29.9248 26.3383C29.8797 26.2481 29.8196 26.1729 29.7444 26.0977V26.1278L29.7293 26.1429ZM25.0677 22.5489C24.5263 23.0752 23.8346 23.4361 23.0977 23.5865C22.3459 23.7218 21.5789 23.6466 20.8872 23.3609C20.1805 23.0601 19.594 22.5789 19.1729 21.9474C18.7519 21.3158 18.5263 20.5789 18.5263 19.812C18.5263 19.0451 18.7519 18.3083 19.1729 17.6767C19.594 17.0451 20.1955 16.5489 20.8872 16.2632C21.594 15.9624 22.3609 15.8872 23.0977 16.0376C23.8496 16.1729 24.5263 16.5338 25.0677 17.0752C25.4286 17.4361 25.7143 17.8571 25.9098 18.3233C26.1053 18.7895 26.2105 19.3007 26.2105 19.812C26.2105 20.3233 26.1053 20.8195 25.9098 21.3007C25.7143 21.7669 25.4286 22.203 25.0677 22.5489Z" fill="#0472A2"/>
</svg>
