<svg width="30" height="30" viewBox="0 0 30 30" fill="none" xmlns="http://www.w3.org/2000/svg">
<path d="M10.028 18.5628H9.29053L8.92744 19.0621L8.5757 18.5628H7.7928L8.53031 19.5499L7.77012 20.5484H8.53031L8.90476 20.0265L9.26785 20.5484H10.0621L9.30189 19.5273L10.028 18.5628ZM8.81397 25.1778C8.90322 25.1755 8.98984 25.147 9.06297 25.0958C9.1361 25.0446 9.19251 24.973 9.22512 24.8899C9.25774 24.8068 9.26512 24.7159 9.24635 24.6286C9.22758 24.5413 9.18348 24.4615 9.11958 24.3992C9.05568 24.3369 8.97482 24.2947 8.8871 24.2781C8.79938 24.2615 8.7087 24.2711 8.62643 24.3058C8.54416 24.3405 8.47395 24.3986 8.42456 24.473C8.37517 24.5474 8.34882 24.6346 8.3488 24.7239C8.34715 24.7849 8.35812 24.8456 8.38107 24.9022C8.40401 24.9588 8.43842 25.01 8.48211 25.0526C8.5258 25.0952 8.57784 25.1283 8.63495 25.1499C8.69206 25.1714 8.75301 25.1809 8.81397 25.1778ZM8.81397 26.3124C8.75398 26.3093 8.69399 26.3185 8.63765 26.3394C8.58132 26.3602 8.52982 26.3923 8.4863 26.4337C8.44277 26.4751 8.40814 26.5249 8.3845 26.5802C8.36085 26.6354 8.34872 26.6949 8.3488 26.7549C8.3488 26.8783 8.39781 26.9966 8.48505 27.0839C8.57229 27.1711 8.69059 27.2201 8.81397 27.2201C8.93735 27.2201 9.05568 27.1711 9.14292 27.0839C9.23016 26.9966 9.27918 26.8783 9.27918 26.7549C9.27774 26.6958 9.26447 26.6376 9.24015 26.5837C9.21584 26.5298 9.18099 26.4813 9.13762 26.4411C9.09426 26.4009 9.04327 26.3699 8.98769 26.3497C8.93211 26.3295 8.87302 26.3207 8.81397 26.3238V26.3124ZM7.67933 26.0855H10.0394V25.3934H7.67933V26.0855ZM14.1695 25.348H16.1778V24.6218H14.1695V25.348ZM20.3533 20.0152H22.2254V19.323H20.3533V20.0152ZM20.9546 25.3139C20.9546 25.2118 21.0568 25.121 21.3177 25.121C21.5294 25.1259 21.7363 25.1844 21.9191 25.2912L22.112 24.826C21.9158 24.7204 21.699 24.6584 21.4766 24.6445V24.3041H21.1022V24.6558C20.5916 24.6558 20.3419 25.0076 20.3419 25.348C20.3419 26.1649 21.59 25.9153 21.59 26.267C21.59 26.3691 21.4879 26.4372 21.2383 26.4372C20.9803 26.4388 20.7276 26.3637 20.5121 26.2216L20.3079 26.6868C20.5488 26.831 20.8217 26.9129 21.1022 26.9251V27.2542H21.4879V26.9138C21.9758 26.8343 22.2141 26.5507 22.2141 26.2103C22.1914 25.4047 20.9433 25.6543 20.9433 25.3139H20.9546ZM15.4743 18.3132H14.7595V19.2209H13.9085V19.913H14.7595V20.8208H15.4743V19.913H16.3366V19.2209H15.4743V18.3132ZM14.1241 26.6642H16.1324V25.9266H14.1241V26.6642ZM23.9274 4.6975V1.38435C23.9245 1.24683 23.8686 1.11575 23.7713 1.01849C23.6741 0.921225 23.543 0.865304 23.4055 0.862408H21.6127C21.4752 0.865304 21.3442 0.921225 21.2469 1.01849C21.1496 1.11575 21.0937 1.24683 21.0908 1.38435V3.04092C18.5605 1.63396 16.1665 0.45394 15.3268 0.0681623C15.223 0.0231975 15.111 0 14.9978 0C14.8846 0 14.7726 0.0231975 14.6687 0.0681623C12.2973 1.2028 -2.19205 8.47586 2.18767 9.54242C2.7096 9.67858 3.32232 9.83742 3.86695 9.96223C4.03708 10.0007 4.18915 10.0957 4.29836 10.2317C4.40757 10.3677 4.46747 10.5367 4.46831 10.7111V14.4441C4.46831 17.292 4.46831 21.8192 4.46831 28.1959C4.47131 28.6754 4.66388 29.1343 5.00402 29.4723C5.34415 29.8103 5.80422 30 6.28374 30H23.7572C24.2367 30 24.6968 29.8103 25.0369 29.4723C25.377 29.1343 25.5696 28.6754 25.5726 28.1959C25.5726 20.3669 25.5726 15.3064 25.5726 12.7535V10.6997C25.5735 10.5253 25.6334 10.3563 25.7426 10.2203C25.8518 10.0843 26.0039 9.98937 26.174 9.95089C26.7413 9.82608 27.3086 9.66723 27.7852 9.54242C30.0658 9.03183 27.3881 6.86466 23.9274 4.6975ZM11.5144 27.7761C11.5144 27.9055 11.463 28.0296 11.3715 28.1211C11.28 28.2126 11.1559 28.264 11.0265 28.264H6.73759C6.60819 28.264 6.48411 28.2126 6.39261 28.1211C6.30111 28.0296 6.2497 27.9055 6.2497 27.7761V23.5099C6.2497 23.3805 6.30111 23.2563 6.39261 23.1649C6.48411 23.0734 6.60819 23.0219 6.73759 23.0219H11.0039C11.1333 23.0219 11.2573 23.0734 11.3488 23.1649C11.4403 23.2563 11.4917 23.3805 11.4917 23.5099L11.5144 27.7761ZM11.5144 21.6377C11.5144 21.7012 11.5017 21.7641 11.4771 21.8227C11.4524 21.8813 11.4163 21.9343 11.3709 21.9787C11.3254 22.0231 11.2715 22.058 11.2124 22.0813C11.1532 22.1046 11.0901 22.1158 11.0265 22.1142H6.73759C6.67406 22.1158 6.61088 22.1046 6.55175 22.0813C6.49262 22.058 6.43873 22.0231 6.39327 21.9787C6.3478 21.9343 6.31169 21.8813 6.28703 21.8227C6.26238 21.7641 6.24969 21.7012 6.2497 21.6377V17.4055C6.2497 17.2761 6.30111 17.152 6.39261 17.0605C6.48411 16.969 6.60819 16.9176 6.73759 16.9176H11.0039C11.1333 16.9176 11.2573 16.969 11.3488 17.0605C11.4403 17.152 11.4917 17.2761 11.4917 17.4055L11.5144 21.6377ZM17.6642 27.7761C17.6642 27.9055 17.6128 28.0296 17.5213 28.1211C17.4298 28.2126 17.3057 28.264 17.1763 28.264H12.91C12.7806 28.264 12.6566 28.2126 12.5651 28.1211C12.4736 28.0296 12.4222 27.9055 12.4222 27.7761V23.5099C12.4222 23.3805 12.4736 23.2563 12.5651 23.1649C12.6566 23.0734 12.7806 23.0219 12.91 23.0219H17.1763C17.3057 23.0219 17.4298 23.0734 17.5213 23.1649C17.6128 23.2563 17.6642 23.3805 17.6642 23.5099V27.7761ZM17.6642 21.6377C17.6642 21.7012 17.6515 21.7641 17.6269 21.8227C17.6022 21.8813 17.5661 21.9343 17.5206 21.9787C17.4752 22.0231 17.4213 22.058 17.3621 22.0813C17.303 22.1046 17.2398 22.1158 17.1763 22.1142H12.91C12.793 22.119 12.6782 22.0815 12.5865 22.0086C12.4949 21.9357 12.4325 21.8322 12.4108 21.7171V17.4055C12.4108 17.2761 12.4622 17.152 12.5537 17.0605C12.6452 16.969 12.7693 16.9176 12.8987 16.9176H17.1649C17.2943 16.9176 17.4184 16.969 17.5099 17.0605C17.6014 17.152 17.6528 17.2761 17.6528 17.4055L17.6642 21.6377ZM23.8139 27.7761C23.8139 27.9055 23.7625 28.0296 23.671 28.1211C23.5795 28.2126 23.4554 28.264 23.326 28.264H19.0598C18.9304 28.264 18.8063 28.2126 18.7148 28.1211C18.6233 28.0296 18.5719 27.9055 18.5719 27.7761V23.5099C18.5719 23.3805 18.6233 23.2563 18.7148 23.1649C18.8063 23.0734 18.9304 23.0219 19.0598 23.0219H23.326C23.4554 23.0219 23.5795 23.0734 23.671 23.1649C23.7625 23.2563 23.8139 23.3805 23.8139 23.5099V27.7761ZM23.8139 21.6377C23.811 21.7651 23.7583 21.8863 23.6671 21.9754C23.5759 22.0644 23.4535 22.1143 23.326 22.1142H19.0598C18.9962 22.1158 18.9331 22.1046 18.8739 22.0813C18.8148 22.058 18.7609 22.0231 18.7155 21.9787C18.67 21.9343 18.6339 21.8813 18.6092 21.8227C18.5846 21.7641 18.5719 21.7012 18.5719 21.6377V17.4055C18.5719 17.2761 18.6233 17.152 18.7148 17.0605C18.8063 16.969 18.9304 16.9176 19.0598 16.9176H23.326C23.4554 16.9176 23.5795 16.969 23.671 17.0605C23.7625 17.152 23.8139 17.2761 23.8139 17.4055V21.6377ZM23.8934 15.0227C23.8934 15.1521 23.842 15.2762 23.7505 15.3677C23.659 15.4592 23.5349 15.5106 23.4055 15.5106H6.73759C6.60819 15.5106 6.48411 15.4592 6.39261 15.3677C6.30111 15.2762 6.2497 15.1521 6.2497 15.0227V8.10142C6.2497 7.97202 6.30111 7.84792 6.39261 7.75642C6.48411 7.66492 6.60819 7.61354 6.73759 7.61354H23.3941C23.5226 7.61642 23.645 7.66875 23.7359 7.75962C23.8268 7.8505 23.8791 7.97293 23.882 8.10142L23.8934 15.0227ZM14.9978 8.41912C11.2194 8.41912 8.18993 9.82607 8.18993 11.5507C8.18993 13.2754 11.2535 14.6937 14.9978 14.6937C18.7421 14.6937 21.8056 13.2867 21.8056 11.5507C21.8056 9.81472 18.7761 8.45316 14.9978 8.45316V8.41912ZM14.9978 13.4683C12.7285 13.4683 10.8336 12.6059 10.8336 11.5507C10.8336 10.4955 12.7058 9.64454 14.9978 9.64454C17.2898 9.64454 19.1619 10.5069 19.1619 11.5507C19.1619 12.5946 17.3011 13.5023 14.9978 13.5023V13.4683Z" fill="#0472A2"/>
</svg>
